<svg width="53" height="58" viewBox="0 0 53 58" fill="none" xmlns="http://www.w3.org/2000/svg">
<path d="M4.675 16.3949L26.5 29.0199L48.325 16.3949M26.5 54.1949V28.9949M49 38.9949V18.9949C48.9991 18.1181 48.7676 17.2569 48.3288 16.4978C47.89 15.7387 47.2593 15.1083 46.5 14.6699L29 4.66987C28.2399 4.23103 27.3777 4 26.5 4C25.6223 4 24.7601 4.23103 24 4.66987L6.5 14.6699C5.74066 15.1083 5.10995 15.7387 4.67115 16.4978C4.23236 17.2569 4.0009 18.1181 4 18.9949V38.9949C4.0009 39.8717 4.23236 40.7328 4.67115 41.492C5.10995 42.2511 5.74066 42.8815 6.5 43.3199L24 53.3199C24.7601 53.7587 25.6223 53.9897 26.5 53.9897C27.3777 53.9897 28.2399 53.7587 29 53.3199L46.5 43.3199C47.2593 42.8815 47.89 42.2511 48.3288 41.492C48.7676 40.7328 48.9991 39.8717 49 38.9949Z" stroke="#5178DD" stroke-width="7" stroke-linecap="round" stroke-linejoin="round"/>
</svg>
